<svg xmlns="http://www.w3.org/2000/svg" style="display:none">
  <symbol id="doc" viewBox="0 0 24 24"><path d="M7 2h7l5 5v13a2 2 0 0 1-2 2H7a2 2 0 0 1-2-2V4a2 2 0 0 1 2-2zm7 1v4h4"/></symbol>
  <symbol id="tools" viewBox="0 0 24 24"><path d="M7 8l-4 4 9 9 4-4-9-9zm9.5-7a5.5 5.5 0 0 0-5 7.9l-7.6 7.6a2 2 0 0 0 2.8 2.8l7.6-7.6A5.5 5.5 0 1 0 16.5 1z"/></symbol>
  <symbol id="archive" viewBox="0 0 24 24"><path d="M3 3h18v4H3V3zm2 6h14v12H5V9zm4 2h6v2H9v-2z"/></symbol>
  <symbol id="users" viewBox="0 0 24 24"><path d="M16 11a4 4 0 1 0-8 0 4 4 0 0 0 8 0zm-12 9a7 7 0 0 1 14 0H4z"/></symbol>
  <symbol id="user" viewBox="0 0 24 24"><path d="M12 12a5 5 0 1 0-5-5 5 5 0 0 0 5 5zm0 2c-5 0-9 3-9 6v2h18v-2c0-3-4-6-9-6z"/></symbol>
  <symbol id="phone" viewBox="0 0 24 24"><path d="M6.6 10.8a15 15 0 0 0 6.6 6.6l2.2-2.2a1 1 0 0 1 1.1-.2 11 11 0 0 0 3.5.6 1 1 0 0 1 1 1V20a2 2 0 0 1-2 2A18 18 0 0 1 2 6a2 2 0 0 1 2-2h2.2a1 1 0 0 1 1 1 11 11 0 0 0 .6 3.5 1 1 0 0 1-.2 1.1L6.6 10.8z"/></symbol>
  <symbol id="logout" viewBox="0 0 24 24"><path d="M10 3H5a2 2 0 0 0-2 2v14a2 2 0 0 0 2 2h5M17 16l4-4-4-4M7 12h14"/></symbol>
  <symbol id="chevron" viewBox="0 0 24 24"><path d="M8 10l4 4 4-4"/></symbol>
  <symbol id="search" viewBox="0 0 24 24"><path d="M21 21l-4.3-4.3m1.3-5.2a7.5 7.5 0 1 1-15 0 7.5 7.5 0 0 1 15 0z"/></symbol>
  <symbol id="plus" viewBox="0 0 24 24"><path d="M12 5v14M5 12h14"/></symbol>
  <symbol id="eye" viewBox="0 0 24 24"><path d="M1 12s4-7 11-7 11 7 11 7-4 7-11 7S1 12 1 12zm11 3a3 3 0 1 0 0-6 3 3 0 0 0 0 6z"/></symbol>
  <symbol id="edit" viewBox="0 0 24 24"><path d="M3 17.3V21h3.7L17.8 9.9l-3.7-3.7L3 17.3zM20.7 7.1a1 1 0 0 0 0-1.4l-2.4-2.4a1 1 0 0 0-1.4 0l-1.8 1.8 3.7 3.7 1.9-1.7z"/></symbol>
  <symbol id="trash" viewBox="0 0 24 24"><path d="M3 6h18M8 6V4h8v2m-1 0l-1 14H10L9 6"/></symbol>
  <symbol id="arrow-left" viewBox="0 0 24 24"><path d="M5 12h14M5 12l6-6M5 12l6 6"/></symbol>
</svg>
